<svg width="80" height="80" viewBox="0 0 80 80" fill="none" xmlns="http://www.w3.org/2000/svg">
<g clip-path="url(#clip0_96450_12)">
<path d="M4.38281 0H75.6172C76.8234 0 77.9203 0.687604 78.7141 1.7965C79.5078 2.9054 80 4.43777 80 6.12295V73.8771C80 75.5622 79.5078 77.0946 78.7141 78.2035C77.9203 79.3124 76.8234 80 75.6172 80H4.38281C3.17656 80 2.07969 79.3124 1.28594 78.2035C0.492187 77.0946 0 75.5622 0 73.8771V6.12295C0 4.43777 0.492187 2.9054 1.28594 1.7965C2.07969 0.687604 3.17656 0 4.38281 0ZM24.0062 38.006H38.5719V16.8823H24.0062V38.006ZM41.4281 38.006H55.9937V16.8823H41.4281V38.006ZM58.8484 39.6278C58.8641 39.7479 58.8734 39.8723 58.8734 40.0011C58.8734 40.1277 58.8641 40.2521 58.8484 40.3722V63.1177H77.1453V16.8823H58.8484V39.6278ZM55.9937 41.9941H41.4281V63.1177H55.9937V41.9941ZM38.5719 41.9941H24.0062V63.1177H38.5719V41.9941ZM21.1516 63.1177V16.8823H2.85469V63.1177H21.1516ZM38.5719 76.0119V67.1058H2.85469V73.8771C2.85469 74.4621 3.02656 74.9947 3.30469 75.3832C3.58281 75.7718 3.96406 76.0119 4.38281 76.0119H38.5719ZM38.5719 12.8942V3.9881H4.38281C3.96406 3.9881 3.58281 4.22822 3.30469 4.61677C3.02656 5.00532 2.85469 5.53794 2.85469 6.12295V12.8942H38.5719ZM41.4281 3.9881V12.8942H77.1453V6.12295C77.1453 5.53794 76.9734 5.00532 76.6953 4.61677C76.4172 4.22822 76.0359 3.9881 75.6172 3.9881H41.4281ZM41.4281 67.1058V76.0119H75.6172C76.0359 76.0119 76.4172 75.7718 76.6953 75.3832C76.9734 74.9947 77.1453 74.4621 77.1453 73.8771V67.1058H41.4281Z" fill="#607844"/>
</g>
<defs>
<clipPath id="clip0_96450_12">
<rect width="80" height="80" fill="white"/>
</clipPath>
</defs>
</svg>
