<svg width="80" height="80" viewBox="0 0 80 80" fill="none" xmlns="http://www.w3.org/2000/svg">
<g clip-path="url(#clip0_96450_14)">
<path d="M68.2833 11.7167C62.6905 6.1291 55.5667 2.32508 47.8124 0.785473C40.058 -0.754136 32.0213 0.0397816 24.7181 3.06687C17.4149 6.09396 11.1731 11.2183 6.78167 17.7922C2.39026 24.3661 0.0464172 32.0943 0.0464172 40C0.0464172 47.9057 2.39026 55.6339 6.78167 62.2078C11.1731 68.7817 17.4149 73.906 24.7181 76.9331C32.0213 79.9602 40.058 80.7541 47.8124 79.2145C55.5667 77.6749 62.6905 73.8709 68.2833 68.2833C75.7736 60.7763 79.9802 50.6047 79.9802 40C79.9802 29.3953 75.7736 19.2237 68.2833 11.7167ZM73.1133 36.44C69.1161 36.9249 65.0609 36.4941 61.2547 35.1804C57.4486 33.8666 53.9911 31.7042 51.1441 28.8568C48.297 26.0094 46.135 22.5517 44.8216 18.7454C43.5083 14.9391 43.078 10.8839 43.5633 6.88667C51.1291 7.6821 58.1923 11.0514 63.5712 16.431C68.9502 21.8106 72.3188 28.8742 73.1133 36.44ZM6.88667 43.56C10.8839 43.0751 14.9391 43.5058 18.7453 44.8196C22.5515 46.1334 26.0089 48.2958 28.8559 51.1432C31.703 53.9906 33.865 57.4483 35.1784 61.2546C36.4917 65.0609 36.922 69.1161 36.4367 73.1133C28.8709 72.3179 21.8077 68.9486 16.4288 63.569C11.0498 58.1894 7.68125 51.1258 6.88667 43.56ZM63.57 63.56C58.0936 69.0484 50.8671 72.444 43.1467 73.1567C43.625 68.2676 43.0137 63.3333 41.3566 58.7088C39.6995 54.0843 37.0379 49.8846 33.5633 46.4119C30.0888 42.9393 25.8876 40.28 21.2622 38.6255C16.6368 36.9709 11.7022 36.3623 6.81334 36.8433C7.53837 29.1243 10.937 21.901 16.4219 16.4215C21.9069 10.942 29.1336 7.55065 36.8533 6.83333C36.4051 11.4552 36.9288 16.1197 38.3908 20.527C39.8528 24.9344 42.2208 28.9871 45.3426 32.4247C48.4644 35.8623 52.2708 38.6087 56.5173 40.4874C60.7639 42.3661 65.3565 43.3355 70 43.3333C71.0567 43.3333 72.1167 43.28 73.1767 43.18C72.4526 50.8897 69.0541 58.103 63.57 63.57V63.56Z" fill="#607844"/>
</g>
<defs>
<clipPath id="clip0_96450_14">
<rect width="80" height="80" fill="white"/>
</clipPath>
</defs>
</svg>
