<svg width="80" height="80" viewBox="0 0 80 80" fill="none" xmlns="http://www.w3.org/2000/svg">
<g clip-path="url(#clip0_96450_16)">
<path d="M73.1933 6.80667C62.71 -3.67667 43.7733 -1.8 30.9867 10.99C22.9133 19.0667 19.19 29.59 20.18 38.89C20.1733 39.0233 20.3733 40.3567 20.4333 40.6933C20.9867 44.5933 22.0367 55.6067 17.1533 60.49L0.486676 77.1533C-0.163324 77.8033 -0.163324 78.86 0.486676 79.51C0.813343 79.8367 1.24001 79.9967 1.66668 79.9967C2.09334 79.9967 2.52001 79.8333 2.84668 79.51L19.5133 62.8433C23.9167 58.4367 33.87 58.9133 38.8367 59.4767C39.7567 59.6567 43.46 59.9767 44.0933 59.9767C49.9367 59.9767 56.1 58.2133 61.7267 54.77C64.2 53.03 67.06 50.9667 69.0167 49.01C81.8033 36.22 83.68 17.2867 73.2 6.80333L73.1933 6.80667ZM73.2667 37.5933L64.7833 29.11L75.88 18.0133C77.5033 24.0567 76.5733 31.09 73.2667 37.5933ZM74.62 14.5633L62.4267 26.7567L52.9533 17.2833L65.0367 5.2C67.1733 6.15 69.1333 7.47 70.83 9.16667C72.4233 10.76 73.6833 12.58 74.62 14.5633ZM29.1633 50.8367C27.4667 49.14 26.1467 47.18 25.1967 45.0433L38.0833 32.1567L47.5567 41.6267L34.5633 54.62C32.58 53.6867 30.7567 52.4267 29.1667 50.8367H29.1633ZM40.44 29.8L50.6033 19.6367L60.0767 29.11L49.9133 39.2733L40.44 29.8033V29.8ZM55.9033 3.33667C57.8367 3.33667 59.7233 3.55667 61.5267 4L50.6 14.9267L42.4067 6.73333C46.82 4.49 51.4767 3.34 55.9 3.34L55.9033 3.33667ZM33.3433 13.3433C35.24 11.4467 37.2833 9.81333 39.4133 8.44667L48.2433 17.2767L38.08 27.44L29.0867 18.4467C30.3133 16.6633 31.7367 14.9533 33.3433 13.3433ZM27.2833 21.3633L35.7233 29.8033L23.9967 41.53C23.92 41.2233 23.5533 39.0433 23.5033 38.7733C22.8467 33.19 24.1467 27.04 27.2833 21.3633ZM24.1767 50.03C24.9433 51.1533 25.82 52.21 26.8033 53.1967C27.8133 54.2067 28.9067 55.1033 30.06 55.8867C27.6367 56.0433 25.14 56.4267 22.8633 57.1767C23.6367 54.8933 24.0233 52.4133 24.1767 50.03ZM42.2467 56.5967C41.8433 56.5233 40.71 56.33 39.1167 56.1533C38.7467 56.0733 38.38 55.9867 38.0133 55.8867L49.91 43.99L58.6367 52.7167C53.3033 55.6667 47.5533 56.9933 42.2467 56.5967ZM61.55 50.9167L52.2667 41.6333L62.43 31.47L71.55 40.59C70.1833 42.72 68.55 44.7633 66.6533 46.66C65.0433 48.27 63.3333 49.69 61.55 50.9167Z" fill="#607844"/>
</g>
<defs>
<clipPath id="clip0_96450_16">
<rect width="80" height="80" fill="white"/>
</clipPath>
</defs>
</svg>
