<svg width="40" height="40" viewBox="0 0 40 40" fill="none" xmlns="http://www.w3.org/2000/svg">
<path d="M20 31.6667C19.3333 31.6667 18.705 31.4067 18.2317 30.935L9.42999 22.1333L10.6083 20.955L19.41 29.7567C19.725 30.07 20.2733 30.07 20.5883 29.7567L29.39 20.955L30.5683 22.1333L21.7667 30.935C21.295 31.4067 20.6667 31.6667 19.9983 31.6667H20ZM20.785 19.675L30.57 9.89L29.3917 8.71167L20 18.1033L10.6083 8.71167L9.42999 9.89L19.215 19.675C19.4317 19.8917 19.715 20 20 20C20.285 20 20.5683 19.8917 20.785 19.675Z" fill="white"/>
</svg>
